<svg width="230" height="174" viewBox="0 0 230 174" fill="none" xmlns="http://www.w3.org/2000/svg">
<g clip-path="url(#clip0_2378_3027)">
<path d="M116.562 15.9117H32.3374C26.8569 15.9117 22.4141 20.3564 22.4141 25.8391V109.025C22.4141 114.508 26.8569 118.953 32.3374 118.953H116.562C122.043 118.953 126.486 114.508 126.486 109.025V25.8391C126.486 20.3564 122.043 15.9117 116.562 15.9117Z" fill="#F2F2F2"/>
<path d="M29.349 162.755C29.089 162.767 28.8316 162.698 28.6116 162.559C28.3917 162.419 28.2199 162.216 28.1194 161.975C28.019 161.735 27.9949 161.469 28.0502 161.214C28.1056 160.959 28.2378 160.728 28.4289 160.551C28.4609 160.423 28.4839 160.332 28.5159 160.204C28.5045 160.177 28.4929 160.149 28.4813 160.121C28.2194 159.502 27.7804 158.973 27.2196 158.603C26.6587 158.232 26.001 158.035 25.3291 158.038C24.6572 158.041 24.0009 158.242 23.4429 158.617C22.8848 158.991 22.4497 159.523 22.1924 160.145C21.1638 162.626 19.8542 165.111 19.5318 167.735C19.3897 168.894 19.4497 170.07 19.7088 171.209C17.2929 165.931 16.0384 160.194 16.0304 154.388C16.0299 152.931 16.1107 151.475 16.2725 150.027C16.4062 148.84 16.5917 147.662 16.8289 146.491C18.1238 140.143 20.9039 134.192 24.941 129.128C26.8949 128.06 28.4751 126.418 29.4686 124.423C29.8285 123.706 30.0829 122.941 30.2238 122.151C30.0034 122.18 29.7793 122.198 29.5589 122.212C29.4903 122.216 29.418 122.219 29.3493 122.223L29.3234 122.224C29.0812 122.235 28.841 122.176 28.6317 122.053C28.4224 121.93 28.253 121.75 28.1439 121.533C28.0347 121.316 27.9905 121.072 28.0165 120.831C28.0425 120.589 28.1376 120.36 28.2904 120.172C28.3856 120.054 28.4808 119.937 28.576 119.82C28.7206 119.639 28.8687 119.462 29.0133 119.281C29.03 119.264 29.0456 119.245 29.0603 119.227C29.2265 119.02 29.3927 118.818 29.5589 118.611C29.2555 118.14 28.8474 117.745 28.3665 117.457C26.7007 116.48 24.4026 117.157 23.1993 118.666C21.9924 120.175 21.7648 122.292 22.1839 124.177C22.5961 125.782 23.278 127.304 24.2002 128.679C24.1099 128.795 24.0159 128.907 23.9256 129.023C22.2743 131.15 20.835 133.433 19.6285 135.841C19.9219 133.144 19.5717 130.415 18.6067 127.879C17.6287 125.516 15.7955 123.526 14.1812 121.484C12.2421 119.03 8.26594 120.101 7.92432 123.211C7.92101 123.241 7.91779 123.271 7.91464 123.301C8.15442 123.437 8.38913 123.581 8.61878 123.733C8.90728 123.926 9.13083 124.202 9.26013 124.524C9.38943 124.847 9.41846 125.201 9.34341 125.54C9.26836 125.879 9.09273 126.188 8.83954 126.425C8.58635 126.663 8.2674 126.819 7.92448 126.871L7.88936 126.877C7.97478 127.742 8.12577 128.6 8.34103 129.443C8.96476 131.795 10.067 133.993 11.5785 135.898C13.0901 137.804 14.9785 139.376 17.1252 140.517C17.2661 140.589 17.4034 140.661 17.5444 140.73C16.3321 144.171 15.5718 147.755 15.2824 151.391C15.1185 153.537 15.1282 155.693 15.3113 157.837L15.3005 157.761C14.8379 155.377 13.568 153.225 11.7051 151.67C8.9383 149.394 5.02932 148.556 2.04442 146.726C1.72719 146.522 1.35834 146.413 0.981363 146.412C0.604385 146.411 0.235009 146.518 -0.0832037 146.721C-0.401417 146.923 -0.655193 147.212 -0.814598 147.555C-0.974004 147.897 -1.03239 148.277 -0.982873 148.652C-0.97887 148.678 -0.974799 148.705 -0.970665 148.732C-0.525706 148.913 -0.0924705 149.122 0.32653 149.358C0.566309 149.493 0.801022 149.637 1.03067 149.789C1.31917 149.982 1.54272 150.258 1.67203 150.58C1.80133 150.903 1.83036 151.257 1.75531 151.596C1.68026 151.935 1.50463 152.244 1.25144 152.482C0.998241 152.719 0.679287 152.875 0.336368 152.928L0.301229 152.933C0.275931 152.937 0.254256 152.94 0.229 152.944C0.989272 154.762 2.05634 156.436 3.38347 157.891C5.02293 159.653 7.00443 161.061 9.20648 162.029C11.4085 162.996 13.7847 163.503 16.1894 163.518H16.193C16.8457 166.359 17.7915 169.125 19.0151 171.77H29.0964C29.1326 171.657 29.1651 171.542 29.1976 171.429C28.2645 171.488 27.3276 171.432 26.408 171.263C27.156 170.344 27.904 169.417 28.652 168.498C28.6687 168.481 28.6843 168.463 28.6989 168.444C29.0783 167.973 29.4614 167.507 29.8408 167.036L29.841 167.035C29.8612 165.593 29.696 164.155 29.3494 162.755L29.349 162.755Z" fill="#F2F2F2"/>
<path d="M186.344 158.17C186.536 158.348 186.779 158.462 187.038 158.497C187.298 158.532 187.562 158.487 187.794 158.367C188.027 158.247 188.218 158.059 188.34 157.828C188.462 157.596 188.51 157.333 188.477 157.074C188.535 156.955 188.576 156.87 188.634 156.752C188.661 156.738 188.687 156.724 188.714 156.71C189.317 156.404 189.996 156.282 190.667 156.361C191.339 156.439 191.972 156.713 192.488 157.15C193.003 157.586 193.378 158.165 193.566 158.813C193.753 159.462 193.744 160.151 193.54 160.794C192.728 163.363 192.129 166.117 190.681 168.339C190.041 169.321 189.235 170.184 188.299 170.891C193.571 168.402 198.245 164.811 202.005 160.36C202.948 159.242 203.827 158.073 204.638 156.857C205.303 155.86 205.922 154.835 206.496 153.784C209.604 148.074 211.311 141.71 211.477 135.214C210.663 133.131 210.509 130.85 211.034 128.676C211.22 127.893 211.519 127.142 211.922 126.444C212.073 126.609 212.233 126.768 212.394 126.921C212.444 126.968 212.497 127.018 212.548 127.065L212.567 127.083C212.747 127.248 212.97 127.357 213.21 127.398C213.451 127.44 213.698 127.411 213.922 127.315C214.146 127.219 214.338 127.06 214.474 126.858C214.61 126.656 214.685 126.419 214.689 126.175C214.692 126.024 214.694 125.872 214.697 125.721C214.702 125.489 214.703 125.257 214.709 125.024C214.707 125 214.707 124.976 214.708 124.952C214.713 124.687 214.716 124.424 214.722 124.158C215.26 123.992 215.83 123.953 216.386 124.043C218.3 124.37 219.631 126.375 219.582 128.311C219.535 130.249 218.342 132.021 216.8 133.197C215.446 134.162 213.937 134.89 212.338 135.349C212.332 135.496 212.332 135.643 212.327 135.79C212.223 138.49 211.854 141.173 211.226 143.801C212.745 141.541 214.778 139.673 217.16 138.351C219.441 137.17 222.139 136.828 224.702 136.304C227.781 135.675 230.149 139.067 228.401 141.675C228.384 141.7 228.367 141.725 228.35 141.751C228.078 141.7 227.805 141.658 227.53 141.626C227.183 141.588 226.832 141.655 226.524 141.819C226.216 141.983 225.965 142.236 225.803 142.545C225.642 142.854 225.577 143.204 225.619 143.55C225.66 143.896 225.805 144.222 226.035 144.484L226.058 144.511C225.433 145.12 224.762 145.681 224.052 146.188C222.051 147.59 219.782 148.564 217.386 149.049C214.99 149.534 212.52 149.52 210.131 149.007C209.975 148.972 209.823 148.938 209.67 148.9C208.379 152.324 206.647 155.566 204.518 158.544C203.257 160.297 201.856 161.945 200.329 163.472L200.387 163.421C202.284 161.89 204.652 161.06 207.092 161.071C210.693 161.113 214.244 162.997 217.725 163.522C218.101 163.571 218.455 163.726 218.746 163.969C219.037 164.212 219.252 164.533 219.366 164.894C219.48 165.255 219.488 165.641 219.39 166.007C219.291 166.372 219.09 166.702 218.81 166.958C218.79 166.975 218.769 166.993 218.749 167.011C218.289 166.863 217.821 166.743 217.346 166.653C217.074 166.602 216.8 166.56 216.525 166.529C216.178 166.49 215.828 166.557 215.52 166.721C215.212 166.885 214.96 167.138 214.799 167.447C214.637 167.756 214.573 168.106 214.614 168.452C214.655 168.798 214.8 169.124 215.03 169.386L215.054 169.413C215.071 169.432 215.085 169.449 215.102 169.468C213.342 170.372 211.438 170.966 209.476 171.225C207.075 171.517 204.639 171.317 202.318 170.636C199.998 169.955 197.841 168.807 195.98 167.264L195.977 167.262C193.638 169.02 191.122 170.531 188.47 171.77L180.71 165.252C180.755 165.142 180.805 165.033 180.852 164.925C181.532 165.574 182.29 166.137 183.107 166.601C183.125 165.412 183.149 164.218 183.167 163.029C183.165 163.005 183.165 162.981 183.166 162.957C183.178 162.35 183.185 161.744 183.197 161.138L183.197 161.137C184.114 160.018 185.172 159.02 186.343 158.17L186.344 158.17Z" fill="#F2F2F2"/>
<path d="M228.996 171.94C228.996 171.962 228.988 171.984 228.972 172.005C228.956 172.026 228.933 172.045 228.903 172.06C228.874 172.076 228.839 172.089 228.801 172.097C228.762 172.106 228.721 172.11 228.679 172.11H-0.683468C-0.767417 172.11 -0.847925 172.092 -0.907287 172.06C-0.966648 172.028 -1 171.985 -1 171.94C-1 171.894 -0.966648 171.851 -0.907287 171.819C-0.847925 171.787 -0.767417 171.769 -0.683468 171.769H228.679C228.721 171.769 228.762 171.773 228.801 171.782C228.839 171.79 228.874 171.803 228.903 171.819C228.933 171.835 228.956 171.854 228.972 171.874C228.988 171.895 228.996 171.917 228.996 171.94Z" fill="#CCCCCC"/>
<path d="M50.0235 17.9532C43.2421 17.9532 36.7384 20.6483 31.9432 25.4454C27.148 30.2426 24.4541 36.7489 24.4541 43.5331V109.025C24.4541 110.061 24.658 111.086 25.0541 112.043C25.4503 113 26.0309 113.869 26.7628 114.601C27.4948 115.334 28.3638 115.915 29.3201 116.311C30.2765 116.707 31.3015 116.911 32.3367 116.911H86.0911C96.2629 116.911 106.018 112.869 113.211 105.673C120.403 98.4777 124.444 88.7185 124.444 78.5425V25.839C124.444 23.7476 123.614 21.7418 122.135 20.2629C120.657 18.7841 118.652 17.9532 116.562 17.9532H50.0235Z" fill="white"/>
<path d="M87.2955 81.8179H30.157C29.8302 81.8179 29.5168 81.6881 29.2857 81.4569C29.0546 81.2257 28.9248 80.9122 28.9248 80.5852C28.9248 80.2583 29.0546 79.9448 29.2857 79.7136C29.5168 79.4824 29.8302 79.3525 30.157 79.3525H87.2955C87.6223 79.3525 87.9357 79.4824 88.1668 79.7136C88.3978 79.9448 88.5277 80.2583 88.5277 80.5852C88.5277 80.9122 88.3978 81.2257 88.1668 81.4569C87.9357 81.6881 87.6223 81.8179 87.2955 81.8179Z" fill="#F2F2F2"/>
<path d="M87.2954 46.6572H1.23238C1.07039 46.6574 0.909926 46.6258 0.760182 46.5639C0.610439 46.5021 0.474353 46.4114 0.359706 46.2969C0.24506 46.1824 0.154111 46.0464 0.0920541 45.8967C0.0299968 45.747 -0.00195312 45.5865 -0.00195312 45.4245C-0.00195312 45.2624 0.0299968 45.1019 0.0920541 44.9522C0.154111 44.8026 0.24506 44.6666 0.359706 44.5521C0.474353 44.4376 0.610439 44.3468 0.760182 44.285C0.909926 44.2232 1.07039 44.1915 1.23238 44.1918H87.2954C87.6218 44.1923 87.9347 44.3225 88.1653 44.5536C88.3959 44.7847 88.5254 45.0979 88.5254 45.4245C88.5254 45.751 88.3959 46.0642 88.1653 46.2954C87.9347 46.5265 87.6218 46.6566 87.2954 46.6572Z" fill="#F2F2F2"/>
<path d="M87.2966 55.4597H1.23003C0.903348 55.4603 0.590247 55.5905 0.359449 55.8218C0.12865 56.0531 -0.000976562 56.3666 -0.000976562 56.6934C-0.000976562 57.0202 0.12865 57.3336 0.359449 57.5649C0.590247 57.7962 0.903348 57.9264 1.23003 57.927H87.2966C87.6233 57.9264 87.9364 57.7962 88.1672 57.5649C88.398 57.3336 88.5276 57.0202 88.5276 56.6934C88.5276 56.3666 88.398 56.0531 88.1672 55.8218C87.9364 55.5905 87.6233 55.4603 87.2966 55.4597Z" fill="#F2F2F2"/>
<path d="M87.2952 69.1966H1.23219C0.905396 69.1966 0.591982 69.0667 0.360901 68.8355C0.12982 68.6044 0 68.2908 0 67.9639C0 67.637 0.12982 67.3234 0.360901 67.0922C0.591982 66.8611 0.905396 66.7312 1.23219 66.7312H87.2952C87.622 66.7312 87.9354 66.8611 88.1665 67.0922C88.3975 67.3234 88.5274 67.637 88.5274 67.9639C88.5274 68.2908 88.3975 68.6044 88.1665 68.8355C87.9354 69.0667 87.622 69.1966 87.2952 69.1966Z" fill="#F2F2F2"/>
<path d="M159.766 167.681L155.815 167.681L153.936 152.435L159.767 152.435L159.766 167.681Z" fill="#A0616A"/>
<path d="M159.905 171.805L147.755 171.805V171.651C147.755 170.396 148.253 169.193 149.14 168.306C150.027 167.418 151.23 166.92 152.484 166.92L154.704 165.235L158.845 166.92L159.905 166.92L159.905 171.805Z" fill="#413931"/>
<path d="M199.521 167.681L195.57 167.681L193.69 152.435L199.522 152.435L199.521 167.681Z" fill="#A0616A"/>
<path d="M199.66 171.805L187.51 171.805V171.651C187.51 170.396 188.008 169.193 188.895 168.306C189.782 167.418 190.985 166.92 192.239 166.92L194.459 165.235L198.6 166.92L199.66 166.92L199.66 171.805Z" fill="#413931"/>
<path d="M162.99 80.0914C162.99 80.0914 160.395 82.8465 160.285 84.6339C160.176 86.4213 161.528 83.1746 160.176 86.4213C158.824 89.6679 158.824 87.5035 158.824 89.6679C158.824 91.8323 155.958 93.9459 155.958 93.9459L151.233 113.394L153.956 158.93H159.905C165.435 142.068 168.007 129.047 165.044 123.217L173.307 104.844C173.307 104.844 188.92 153.72 189.557 154.296C190.195 154.872 190.195 154.06 190.195 154.872C190.195 155.683 189.384 154.872 190.195 155.683L193.981 159.471L199.661 158.93C199.661 158.93 200.421 123.544 194.091 117.428C194.091 117.428 195.553 98.4898 194.091 98.543C192.629 98.5962 192.629 101.031 192.629 98.5962C192.629 96.1612 194.361 95.5115 194.361 95.5115L189.493 78.4077L162.99 80.0914Z" fill="#413931"/>
<path d="M193.647 42.3914L188.148 65.4242L189.446 73.9914L191.005 84.255L185.617 83.9061L177.28 83.3642L161.8 82.3619L160.445 36.9088L167.547 29.4848L168.816 25.8805L179.083 25.8174L181.539 30.1455L187.855 31.9421C188.666 32.4575 189.429 33.0464 190.133 33.7016C191.691 35.1456 193.071 36.9793 193.717 38.8576C193.912 39.4049 194.035 39.9751 194.084 40.5539L193.647 42.3914Z" fill="#E6E6E6"/>
<path d="M145.857 100.832C146.27 100.603 146.629 100.287 146.909 99.9058C147.189 99.5246 147.382 99.0871 147.476 98.6237C147.57 98.1602 147.563 97.6819 147.454 97.2217C147.345 96.7616 147.137 96.3306 146.845 95.9586L154.677 81.695L151.266 78.5579L142.088 95.567C141.499 96.105 141.127 96.8405 141.043 97.6343C140.96 98.4281 141.17 99.225 141.635 99.874C142.099 100.523 142.786 100.979 143.564 101.155C144.342 101.332 145.158 101.217 145.857 100.832Z" fill="#E6E6E6"/>
<path d="M164.957 34.13L163.132 66.8454L154.337 87.4049L148.613 94.9991L149.264 91.5579L145.318 89.5828L144.947 89.3988L152.522 59.9896L153.22 48.5614C153.34 46.5947 153.867 44.6744 154.768 42.922C155.668 41.1695 156.922 39.6231 158.451 38.3804L162.832 34.8199L164.957 34.13Z" fill="#E6E6E6"/>
<path d="M145.857 100.832C146.27 100.603 146.629 100.287 146.909 99.9058C147.189 99.5246 147.382 99.0871 147.476 98.6237C147.57 98.1602 147.563 97.6819 147.454 97.2217C147.345 96.7616 147.137 96.3306 146.845 95.9586L154.677 81.695L151.266 78.5579L142.088 95.567C141.499 96.105 141.127 96.8405 141.043 97.6343C140.96 98.4281 141.17 99.225 141.635 99.874C142.099 100.523 142.786 100.979 143.564 101.155C144.342 101.332 145.158 101.217 145.857 100.832Z" fill="#A0616A"/>
<path d="M164.957 34.13L163.132 66.8454L154.337 87.4049L148.613 94.9991L149.264 91.5579L145.318 89.5828L144.947 89.3988L152.522 59.9896L153.22 48.5614C153.34 46.5947 153.867 44.6744 154.768 42.922C155.668 41.1695 156.922 39.6231 158.451 38.3804L162.832 34.8199L164.957 34.13Z" fill="#E6E6E6"/>
<path d="M173.434 35.2578H89.2094C83.7289 35.2578 79.2861 39.7024 79.2861 45.1852V88.6533C79.2861 94.136 83.7289 98.5806 89.2094 98.5806H173.434C178.915 98.5806 183.358 94.136 183.358 88.6533V45.1852C183.358 39.7024 178.915 35.2578 173.434 35.2578Z" fill="white"/>
<path d="M173.434 98.9519H89.2094C86.4801 98.9488 83.8635 97.8628 81.9336 95.9321C80.0037 94.0014 78.9181 91.3837 78.915 88.6534V45.1852C78.9181 42.4548 80.0037 39.8371 81.9336 37.9064C83.8635 35.9757 86.4801 34.8897 89.2094 34.8866H173.434C176.164 34.8897 178.78 35.9758 180.71 37.9065C182.64 39.8371 183.726 42.4548 183.729 45.1852V88.6534C183.726 91.3837 182.64 94.0014 180.71 95.9321C178.78 97.8627 176.164 98.9488 173.434 98.9519ZM89.2094 35.629C86.676 35.629 84.2463 36.6358 82.4549 38.4279C80.6635 40.2201 79.6571 42.6507 79.6571 45.1852V61.4324C79.6571 71.1863 83.5303 80.5407 90.4245 87.4377C97.3188 94.3348 106.669 98.2095 116.419 98.2095H173.434C175.968 98.2095 178.397 97.2027 180.189 95.4106C181.98 93.6185 182.987 91.1879 182.987 88.6535V45.1852C182.987 43.9302 182.739 42.6876 182.259 41.5282C181.779 40.3688 181.076 39.3153 180.189 38.4279C179.302 37.5406 178.249 36.8367 177.09 36.3564C175.931 35.8762 174.689 35.629 173.434 35.629L89.2094 35.629Z" fill="#413931"/>
<path d="M111.471 81.396H91.8055C91.0883 81.396 90.5068 81.9777 90.5068 82.6952C90.5068 83.4127 91.0883 83.9944 91.8055 83.9944H111.471C112.188 83.9944 112.77 83.4127 112.77 82.6952C112.77 81.9777 112.188 81.396 111.471 81.396Z" fill="#EF5360"/>
<path d="M172.322 77.8695H158.594C157.876 77.8695 157.295 78.4512 157.295 79.1687V86.2215C157.295 86.939 157.876 87.5206 158.594 87.5206H172.322C173.04 87.5206 173.621 86.939 173.621 86.2215V79.1687C173.621 78.4512 173.04 77.8695 172.322 77.8695Z" fill="#EF5360"/>
<path d="M173.575 23.9044C178.206 23.9044 181.961 20.1482 181.961 15.5147C181.961 10.8812 178.206 7.125 173.575 7.125C168.943 7.125 165.188 10.8812 165.188 15.5147C165.188 20.1482 168.943 23.9044 173.575 23.9044Z" fill="#A0616A"/>
<path d="M180.454 19.8511C180.52 20.3523 179.613 20.4053 179.409 19.943C179.205 19.4807 179.47 18.9568 179.727 18.522L180.326 17.5128C180.438 17.3228 180.504 17.1086 180.517 16.888C180.53 16.6674 180.49 16.4469 180.401 16.2448C180.312 16.0428 180.175 15.865 180.004 15.7263C179.832 15.5876 179.629 15.492 179.413 15.4475C179.96 14.2158 179.366 12.6786 178.275 11.8872C177.185 11.0958 175.562 12.5765 174.239 12.8304C172.915 13.0844 171.856 12.0712 170.65 12.6719L171.375 11.0007L167.364 12.7295L168.295 10.8496C167.283 10.9047 166.852 12.1382 166.65 13.1321C166.435 14.1911 165.871 15.515 164.721 15.2956C164.448 15.2347 164.197 15.098 163.999 14.9011C163.8 14.7042 163.661 14.4552 163.598 14.1827C162.709 10.7525 165.29 7.00242 168.713 6.40079C169.079 5.38986 169.759 4.52275 170.653 3.92648C171.548 3.33021 172.609 3.0361 173.683 3.08724C174.756 3.13838 175.785 3.53207 176.619 4.21066C177.453 4.88924 178.047 5.81705 178.316 6.8582L179.438 5.48377L179.657 7.43118C180.463 7.34543 181.225 7.91498 181.617 8.62522C182.009 9.33547 181.823 10.2525 182.2 10.9711C183.886 14.192 183.328 17.8181 180.724 20.2883" fill="#413931"/>
<path d="M177.146 98.8464C177.552 98.603 177.899 98.2746 178.165 97.8836C178.431 97.4927 178.609 97.0486 178.687 96.5821C178.764 96.1156 178.739 95.6379 178.614 95.1819C178.489 94.7259 178.266 94.3025 177.962 93.9411L185.282 79.4082L181.761 76.3943L173.193 93.7189C172.623 94.2775 172.278 95.0258 172.223 95.822C172.167 96.6183 172.406 97.4072 172.893 98.0392C173.381 98.6712 174.083 99.1025 174.867 99.2512C175.65 99.4 176.462 99.2559 177.146 98.8464Z" fill="#A0616A"/>
<path d="M193.716 38.8576L194.084 40.554L193.204 64.2661L189.446 73.9915L185.617 83.9062L185.145 85.1274L179.695 92.9188L180.222 89.4555L176.207 87.6218L175.832 87.4548L177.279 83.3642L180.607 73.9655L182.047 69.8971L182.359 57.7924L182.648 46.3484C182.699 44.3788 183.157 42.4411 183.994 40.6579C184.831 38.8746 186.029 37.2845 187.513 35.9882L190.132 33.7017C191.691 35.1456 193.071 36.9793 193.716 38.8576Z" fill="#E6E6E6"/>
<path d="M106.146 98.0942L88.7518 97.723C86.5881 97.7198 84.5139 96.8583 82.9842 95.3274C81.4545 93.7966 80.5941 91.7213 80.5917 89.5567L79.8496 71.3634C81.9854 86.1959 90.1929 95.6045 106.146 98.0942Z" fill="#EF5360"/>
<path d="M104.955 70.964C89.3423 71.3236 89 63.887 89 55.0415C89 46.1963 96.1776 39 105 39C113.822 39 121 46.1963 121 55.0415C121 63.887 113.777 70.964 104.955 70.964ZM105 39.4414C96.4203 39.4414 89.5847 46.4408 89.4403 55.0415C89.3059 63.0412 97.7822 73.0238 105 70.6418C108.871 66.3678 119.814 61.7645 120.56 55.0415C121.508 46.4923 113.58 39.4414 105 39.4414Z" fill="#413931"/>
<path fill-rule="evenodd" clip-rule="evenodd" d="M51.1178 154.851C51.1178 154.161 51.5577 153.766 51.8762 153.48C52.0347 153.338 52.1631 153.223 52.1922 153.111C52.2344 152.951 52.2093 152.572 52.2093 152.572V146.92C52.6704 136.741 62.8172 130.774 71.054 136.387C71.4239 136.639 71.9241 136.361 71.9241 135.885C71.9241 135.694 71.8366 135.513 71.69 135.408C63.3981 129.456 51.7767 135.005 51.1178 146.92V152.572C50.3815 153.26 50.0855 153.834 50.0263 154.851C49.9671 155.869 50.0263 161.262 50.0263 161.262C50.0263 161.262 50.0263 161.942 50.5721 161.942C51.1178 161.942 51.1178 161.262 51.1178 161.262V154.851ZM54.019 153.429C54.3331 153.755 54.7676 154.205 54.7676 154.851V161.263C54.7676 161.263 54.7676 161.943 55.3134 161.943C55.8591 161.943 55.8591 161.263 55.8591 161.263V154.851C55.8591 153.799 55.2961 152.981 54.4947 152.331C54.4947 152.331 54.0852 152.07 53.8126 152.498C53.5399 152.926 53.8126 153.205 53.8126 153.205C53.8676 153.272 53.9395 153.347 54.019 153.429ZM52.8573 155.993C52.3116 155.993 52.3116 156.514 52.3116 156.514V161.422C52.3116 161.422 52.3116 161.942 52.8573 161.942C53.403 161.942 53.403 161.422 53.403 161.422V156.514C53.403 156.514 53.403 155.993 52.8573 155.993ZM78.2343 138.517C78.2343 136.732 76.8699 134.204 75.949 134.204C75.028 134.204 73.6296 136.547 73.6296 138.461C73.6296 140.339 74.1412 141.12 75.2668 142.83C75.2668 142.83 75.5056 143.258 75.1133 143.556C74.7211 143.853 74.3459 143.37 74.3459 143.37C70.4233 139.019 73.749 132.847 75.949 133.014C77.9211 132.834 81.2138 138.587 77.9241 142.853C77.7369 143.095 77.6203 143.398 77.6203 143.715V148.059C76.9614 159.975 65.34 165.524 57.048 159.572C56.9015 159.466 56.8139 159.286 56.8139 159.094C56.8139 158.619 57.3142 158.34 57.6842 158.592C65.9209 164.205 76.0677 158.239 76.5288 148.059V143.37V143.301C76.5288 142.998 76.6335 142.707 76.8129 142.476C77.7618 141.251 78.2343 140.181 78.2343 138.517ZM64.3691 157.555C69.4835 157.555 73.6296 153.035 73.6296 147.46C73.6296 141.884 69.4835 137.365 64.3691 137.365C59.2546 137.365 55.1085 141.884 55.1085 147.46C55.1085 153.035 59.2546 157.555 64.3691 157.555ZM66.1938 142.719C66.1426 142.161 65.4776 142.291 65.4776 142.291C64.0961 142.812 63.8744 143.37 63.8744 144.615C61.4869 143.165 59.4906 145.55 59.7132 147.33C59.8611 148.512 60.0831 148.768 60.4397 149.179L60.4398 149.179C60.4532 149.194 60.4669 149.21 60.4806 149.226C61.6063 150.527 63.0388 152.07 63.3117 152.312C63.5846 152.554 63.9256 152.684 64.4202 152.684C64.9148 152.684 65.1247 152.557 65.4776 152.293C65.7846 152.064 67.7117 149.914 68.3086 149.207C68.8994 148.508 68.9558 147.991 69.0394 147.223L69.042 147.199C69.2466 145.322 67.0977 143.221 64.9318 144.615C64.9318 143.872 65.0341 143.667 65.7674 143.444C65.7674 143.444 66.2449 143.277 66.1938 142.719ZM82.8333 149.763C83.2415 149.917 83.6708 149.993 84.1212 149.993C84.5012 149.993 84.8672 149.94 85.2191 149.832C85.578 149.725 85.8947 149.564 86.1692 149.349C86.4507 149.126 86.6724 148.854 86.8343 148.532C87.0032 148.21 87.0876 147.83 87.0876 147.393C87.0876 146.633 86.8519 146.023 86.3803 145.563C85.9159 145.095 85.2649 144.815 84.4273 144.723C83.8784 144.661 83.4561 144.554 83.1605 144.401C82.872 144.247 82.6714 144.067 82.5588 143.86C82.4532 143.645 82.4005 143.422 82.4005 143.192C82.4005 142.74 82.5764 142.406 82.9283 142.191C83.2802 141.969 83.7165 141.861 84.2373 141.869C84.5329 141.869 84.7898 141.915 85.0079 142.007C85.2262 142.091 85.4162 142.21 85.578 142.364C85.7399 142.517 85.8771 142.705 85.9897 142.928C86.0672 143.073 86.1833 143.173 86.3381 143.227C86.493 143.28 86.6372 143.261 86.7709 143.169C86.8906 143.085 86.9574 142.97 86.9715 142.824C86.9926 142.671 86.9539 142.509 86.8554 142.341C86.6794 142.026 86.4718 141.754 86.2326 141.524C85.9933 141.293 85.7118 141.113 85.388 140.983C85.0713 140.852 84.6983 140.787 84.269 140.787C83.72 140.787 83.2203 140.879 82.7699 141.063C82.3266 141.247 81.9747 141.516 81.7143 141.869C81.4539 142.222 81.3237 142.651 81.3237 143.158C81.3237 143.848 81.5735 144.427 82.0732 144.895C82.5729 145.363 83.2591 145.643 84.1317 145.735C84.8003 145.812 85.2789 146.012 85.5675 146.334C85.8631 146.656 86.0109 147.021 86.0109 147.427C86.0109 147.749 85.9229 148.022 85.7469 148.244C85.571 148.459 85.3388 148.624 85.0501 148.739C84.7686 148.854 84.459 148.912 84.1212 148.912C83.8186 148.912 83.53 148.862 83.2555 148.762C82.9811 148.662 82.7453 148.532 82.5482 148.371C82.3582 148.21 82.221 148.033 82.1365 147.841C82.0732 147.696 81.9782 147.588 81.8515 147.519C81.7319 147.442 81.6087 147.419 81.482 147.45C81.3061 147.488 81.1794 147.577 81.102 147.715C81.0316 147.853 81.0316 148.003 81.102 148.164C81.2428 148.524 81.4644 148.843 81.7671 149.119C82.0697 149.395 82.4251 149.61 82.8333 149.763ZM95.8545 149.729C95.9601 149.836 96.0903 149.89 96.2451 149.89C96.407 149.89 96.5372 149.836 96.6357 149.729C96.7342 149.614 96.7835 149.472 96.7835 149.303V146.012C96.7835 145.482 96.6955 145.033 96.5196 144.665C96.3507 144.289 96.1114 144.005 95.8017 143.814C95.4921 143.622 95.1367 143.526 94.7355 143.526C94.2781 143.526 93.8699 143.633 93.5109 143.848C93.2625 144 93.0528 144.193 92.8818 144.429C92.7259 144.168 92.5274 143.963 92.2864 143.814C91.9767 143.622 91.6213 143.526 91.2202 143.526C90.8049 143.526 90.4355 143.633 90.1117 143.848C89.9763 143.938 89.8531 144.043 89.7419 144.162C89.7384 143.995 89.6895 143.86 89.5945 143.756C89.4959 143.649 89.3657 143.595 89.2039 143.595C89.049 143.595 88.9188 143.649 88.8133 143.756C88.7147 143.863 88.6655 144.005 88.6655 144.182V149.303C88.6655 149.472 88.7147 149.614 88.8133 149.729C88.9188 149.836 89.049 149.89 89.2039 149.89C89.3657 149.89 89.4959 149.836 89.5945 149.729C89.693 149.614 89.7423 149.472 89.7423 149.303V146.058C89.7423 145.628 89.8619 145.275 90.1012 144.999C90.3405 144.723 90.6431 144.585 91.009 144.585C91.3609 144.585 91.646 144.704 91.8641 144.941C92.0823 145.172 92.1914 145.528 92.1914 146.012V149.303C92.1914 149.472 92.2406 149.614 92.3392 149.729C92.4447 149.836 92.5749 149.89 92.7298 149.89C92.8916 149.89 93.0218 149.836 93.1204 149.729C93.2189 149.614 93.2681 149.472 93.2681 149.303V146.058C93.2681 145.628 93.3843 145.275 93.6165 144.999C93.8558 144.723 94.1584 144.585 94.5244 144.585C94.8763 144.585 95.1613 144.704 95.3795 144.941C95.5976 145.172 95.7067 145.528 95.7067 146.012V149.303C95.7067 149.472 95.756 149.614 95.8545 149.729ZM99.5964 149.51C100.005 149.786 100.466 149.924 100.979 149.924C101.493 149.924 101.954 149.786 102.362 149.51C102.614 149.335 102.832 149.124 103.017 148.876V149.303C103.017 149.472 103.066 149.614 103.165 149.729C103.27 149.836 103.4 149.89 103.555 149.89C103.71 149.89 103.837 149.836 103.935 149.729C104.041 149.614 104.094 149.472 104.094 149.303V146.737C104.094 146.131 103.963 145.586 103.703 145.103C103.45 144.619 103.105 144.239 102.668 143.963C102.232 143.679 101.739 143.537 101.19 143.537C100.642 143.537 100.145 143.679 99.702 143.963C99.2657 144.239 98.9173 144.619 98.6569 145.103C98.4036 145.586 98.2769 146.131 98.2769 146.737C98.2769 147.343 98.393 147.887 98.6252 148.371C98.8645 148.846 99.1883 149.226 99.5964 149.51ZM102.151 148.612C101.87 148.797 101.549 148.889 101.19 148.889C100.839 148.889 100.518 148.797 100.23 148.612C99.9483 148.421 99.7231 148.164 99.5542 147.841C99.3924 147.512 99.3114 147.143 99.3114 146.737C99.3114 146.322 99.3924 145.954 99.5542 145.632C99.7231 145.302 99.9483 145.045 100.23 144.861C100.518 144.669 100.839 144.573 101.19 144.573C101.549 144.573 101.87 144.669 102.151 144.861C102.433 145.045 102.654 145.302 102.816 145.632C102.978 145.954 103.059 146.322 103.059 146.737C103.059 147.143 102.978 147.512 102.816 147.841C102.654 148.164 102.433 148.421 102.151 148.612ZM106.752 145.943V149.303C106.752 149.487 106.706 149.629 106.614 149.729C106.53 149.828 106.4 149.878 106.224 149.878C106.055 149.878 105.925 149.832 105.833 149.74C105.742 149.64 105.696 149.495 105.696 149.303V144.159C105.696 143.975 105.742 143.833 105.833 143.733C105.925 143.633 106.055 143.583 106.224 143.583C106.4 143.583 106.53 143.633 106.614 143.733C106.706 143.825 106.752 143.967 106.752 144.159V144.371C106.924 144.159 107.129 143.98 107.364 143.837C107.716 143.622 108.103 143.514 108.525 143.514C108.947 143.514 109.261 143.591 109.465 143.745C109.676 143.89 109.757 144.067 109.708 144.274C109.686 144.381 109.644 144.466 109.581 144.527C109.525 144.581 109.458 144.615 109.38 144.631C109.303 144.646 109.218 144.642 109.127 144.619C108.676 144.519 108.272 144.512 107.913 144.596C107.554 144.681 107.269 144.838 107.058 145.068C106.854 145.298 106.752 145.59 106.752 145.943ZM111.981 149.591C112.262 149.782 112.579 149.878 112.931 149.878H113.121C113.304 149.878 113.452 149.825 113.564 149.717C113.684 149.61 113.744 149.472 113.744 149.303C113.744 149.134 113.698 148.996 113.606 148.889C113.522 148.781 113.416 148.728 113.29 148.728H112.931C112.706 148.728 112.516 148.624 112.361 148.417C112.206 148.21 112.128 147.953 112.128 147.646V144.803H113.026C113.174 144.803 113.293 144.757 113.385 144.665C113.476 144.573 113.522 144.458 113.522 144.32C113.522 144.167 113.476 144.044 113.385 143.952C113.293 143.86 113.174 143.814 113.026 143.814H112.128V142.156C112.128 141.988 112.079 141.85 111.981 141.742C111.882 141.635 111.755 141.581 111.601 141.581C111.446 141.581 111.319 141.635 111.221 141.742C111.122 141.85 111.073 141.988 111.073 142.156V143.814H110.587C110.439 143.814 110.32 143.86 110.228 143.952C110.137 144.044 110.091 144.167 110.091 144.32C110.091 144.458 110.137 144.573 110.228 144.665C110.32 144.757 110.439 144.803 110.587 144.803H111.073V147.646C111.073 148.068 111.154 148.447 111.316 148.785C111.477 149.123 111.699 149.391 111.981 149.591ZM115.32 149.706C115.426 149.821 115.556 149.878 115.711 149.878H120.081C120.236 149.878 120.366 149.821 120.472 149.706C120.578 149.591 120.63 149.449 120.63 149.28C120.63 149.111 120.578 148.969 120.472 148.854C120.366 148.739 120.236 148.681 120.081 148.681H116.26V141.489C116.26 141.32 116.207 141.178 116.102 141.063C115.996 140.948 115.866 140.891 115.711 140.891C115.563 140.891 115.437 140.948 115.331 141.063C115.225 141.178 115.173 141.32 115.173 141.489V149.28C115.173 149.449 115.222 149.591 115.32 149.706ZM122.959 149.602C123.346 149.825 123.783 149.936 124.268 149.936C124.74 149.936 125.158 149.825 125.524 149.602C125.728 149.481 125.908 149.335 126.063 149.166V149.291C126.063 149.46 126.112 149.602 126.211 149.717C126.316 149.825 126.446 149.878 126.601 149.878C126.763 149.878 126.893 149.825 126.992 149.717C127.09 149.602 127.14 149.46 127.14 149.291V144.159C127.14 143.982 127.09 143.84 126.992 143.733C126.893 143.626 126.763 143.572 126.601 143.572C126.446 143.572 126.316 143.626 126.211 143.733C126.112 143.84 126.063 143.982 126.063 144.159V147.404C126.063 147.68 125.992 147.93 125.852 148.152C125.711 148.375 125.521 148.551 125.282 148.681C125.049 148.812 124.782 148.877 124.479 148.877C124.163 148.877 123.878 148.812 123.624 148.681C123.371 148.543 123.17 148.336 123.022 148.06C122.875 147.776 122.801 147.419 122.801 146.99V144.159C122.801 143.99 122.748 143.852 122.642 143.745C122.544 143.629 122.417 143.572 122.262 143.572C122.108 143.572 121.977 143.629 121.872 143.745C121.773 143.852 121.724 143.99 121.724 144.159V146.99C121.724 147.627 121.833 148.164 122.051 148.601C122.276 149.038 122.579 149.372 122.959 149.602ZM133.523 149.729C133.628 149.836 133.758 149.89 133.913 149.89C134.068 149.89 134.195 149.836 134.293 149.729C134.399 149.614 134.452 149.472 134.452 149.303V146.472C134.452 145.835 134.339 145.298 134.114 144.861C133.896 144.424 133.593 144.094 133.206 143.871C132.826 143.641 132.393 143.526 131.908 143.526C131.443 143.526 131.024 143.637 130.651 143.86C130.449 143.98 130.27 144.125 130.113 144.293V144.17C130.113 143.994 130.064 143.852 129.965 143.745C129.867 143.637 129.736 143.583 129.575 143.583C129.42 143.583 129.29 143.637 129.184 143.745C129.085 143.852 129.036 143.994 129.036 144.17V149.303C129.036 149.472 129.085 149.614 129.184 149.729C129.29 149.836 129.42 149.89 129.575 149.89C129.736 149.89 129.867 149.836 129.965 149.729C130.064 149.614 130.113 149.472 130.113 149.303V146.058C130.113 145.774 130.183 145.524 130.324 145.31C130.465 145.087 130.655 144.911 130.894 144.78C131.133 144.65 131.401 144.585 131.696 144.585C132.02 144.585 132.305 144.654 132.552 144.792C132.805 144.922 133.005 145.126 133.153 145.402C133.301 145.678 133.375 146.035 133.375 146.472V149.303C133.375 149.472 133.424 149.614 133.523 149.729ZM137.34 149.51C137.784 149.786 138.287 149.924 138.85 149.924C139.61 149.924 140.243 149.667 140.75 149.153C140.849 149.046 140.891 148.927 140.877 148.797C140.863 148.658 140.796 148.536 140.676 148.428C140.585 148.344 140.479 148.309 140.36 148.325C140.24 148.332 140.124 148.386 140.011 148.486C139.856 148.624 139.684 148.728 139.494 148.797C139.311 148.858 139.096 148.889 138.85 148.889C138.477 148.889 138.15 148.797 137.868 148.612C137.587 148.421 137.365 148.164 137.203 147.841C137.048 147.519 136.971 147.151 136.971 146.737C136.971 146.299 137.048 145.92 137.203 145.597C137.358 145.275 137.573 145.026 137.847 144.849C138.122 144.665 138.438 144.573 138.797 144.573C139.311 144.573 139.74 144.773 140.085 145.172C140.184 145.279 140.293 145.348 140.412 145.379C140.532 145.402 140.641 145.375 140.74 145.298C140.866 145.198 140.944 145.083 140.972 144.953C141 144.822 140.965 144.696 140.866 144.573C140.592 144.228 140.282 143.971 139.937 143.802C139.592 143.626 139.212 143.537 138.797 143.537C138.241 143.537 137.749 143.676 137.319 143.952C136.89 144.22 136.552 144.596 136.306 145.079C136.059 145.563 135.936 146.115 135.936 146.737C135.936 147.343 136.059 147.887 136.306 148.371C136.559 148.846 136.904 149.226 137.34 149.51ZM143.649 147.001V149.303C143.649 149.472 143.599 149.614 143.501 149.729C143.402 149.836 143.272 149.89 143.11 149.89C142.955 149.89 142.825 149.836 142.72 149.729C142.621 149.614 142.572 149.472 142.572 149.303V147.001V144.17V141.478C142.572 141.301 142.621 141.159 142.72 141.052C142.825 140.944 142.955 140.891 143.11 140.891C143.272 140.891 143.402 140.944 143.501 141.052C143.599 141.159 143.649 141.301 143.649 141.478V144.17V144.293C143.806 144.125 143.985 143.98 144.187 143.86C144.56 143.637 144.979 143.526 145.443 143.526C145.929 143.526 146.362 143.641 146.742 143.871C147.129 144.094 147.431 144.424 147.65 144.861C147.875 145.298 147.987 145.835 147.987 146.472V149.303C147.987 149.472 147.935 149.614 147.829 149.729C147.73 149.836 147.604 149.89 147.449 149.89C147.294 149.89 147.164 149.836 147.058 149.729C146.96 149.614 146.911 149.472 146.911 149.303V146.472C146.911 146.035 146.837 145.678 146.689 145.402C146.541 145.126 146.341 144.922 146.087 144.792C145.841 144.654 145.556 144.585 145.232 144.585C144.936 144.585 144.669 144.65 144.43 144.78C144.19 144.911 144 145.087 143.86 145.31C143.719 145.524 143.649 145.774 143.649 146.058V147.001Z" fill="#F2F2F2"/>
<path d="M98.3154 60.6847L110.685 48.3154" stroke="#EF5360" stroke-width="3" stroke-linecap="round"/>
<path d="M110.685 60.6847L98.3153 48.3154" stroke="#EF5360" stroke-width="3" stroke-linecap="round"/>
</g>
<defs>
<clipPath id="clip0_2378_3027">
<rect width="230" height="174" fill="white"/>
</clipPath>
</defs>
</svg>
