<svg width="254" height="193" viewBox="0 0 254 193" fill="none" xmlns="http://www.w3.org/2000/svg">
<path d="M33.4438 177.897C33.1572 177.91 32.8735 177.835 32.6312 177.681C32.3888 177.527 32.1994 177.303 32.0888 177.037C31.9781 176.772 31.9515 176.48 32.0125 176.199C32.0735 175.918 32.2192 175.663 32.4298 175.468C32.4651 175.328 32.4904 175.227 32.5257 175.086C32.5131 175.056 32.5004 175.025 32.4876 174.995C32.1989 174.312 31.7152 173.73 31.0971 173.321C30.4791 172.913 29.7544 172.696 29.0139 172.699C28.2734 172.702 27.5503 172.924 26.9353 173.337C26.3203 173.75 25.8409 174.336 25.5573 175.021C24.4239 177.755 22.9807 180.493 22.6254 183.384C22.4689 184.662 22.5349 185.957 22.8205 187.213C20.1583 181.397 18.7759 175.075 18.767 168.677C18.7664 167.071 18.8555 165.467 19.0337 163.871C19.1811 162.563 19.3855 161.264 19.647 159.975C21.0739 152.979 24.1375 146.421 28.5862 140.841C30.7394 139.664 32.4807 137.855 33.5755 135.657C33.9721 134.866 34.2524 134.023 34.4077 133.152C34.1648 133.184 33.9179 133.204 33.6751 133.22C33.5994 133.224 33.5198 133.228 33.4441 133.232L33.4156 133.233C33.1486 133.245 32.8839 133.18 32.6533 133.044C32.4227 132.909 32.236 132.71 32.1157 132.471C31.9954 132.232 31.9466 131.964 31.9753 131.698C32.0039 131.431 32.1088 131.179 32.2772 130.972C32.382 130.842 32.487 130.713 32.5919 130.584C32.7512 130.384 32.9145 130.189 33.0738 129.99C33.0921 129.971 33.1094 129.951 33.1255 129.93C33.3087 129.703 33.4918 129.479 33.675 129.252C33.3407 128.732 32.891 128.297 32.361 127.98C30.5254 126.903 27.9929 127.649 26.6669 129.312C25.337 130.975 25.0862 133.308 25.548 135.385C26.0023 137.153 26.7536 138.831 27.7699 140.346C27.6704 140.474 27.5668 140.598 27.4673 140.725C25.6476 143.069 24.0615 145.585 22.732 148.239C23.0553 145.266 22.6694 142.259 21.606 139.465C20.5282 136.861 18.5082 134.668 16.7292 132.417C14.5925 129.713 10.2108 130.893 9.83434 134.321C9.8307 134.354 9.82714 134.387 9.82367 134.42C10.0879 134.57 10.3466 134.728 10.5996 134.896C10.9175 135.108 11.1639 135.412 11.3064 135.768C11.4489 136.123 11.4808 136.513 11.3981 136.887C11.3154 137.261 11.1219 137.601 10.8429 137.863C10.5639 138.125 10.2124 138.296 9.83451 138.354L9.79582 138.36C9.88995 139.314 10.0563 140.259 10.2935 141.188C10.9809 143.78 12.1955 146.202 13.8612 148.302C15.5269 150.402 17.6078 152.134 19.9734 153.391C20.1287 153.471 20.2801 153.55 20.4354 153.626C19.0995 157.418 18.2616 161.367 17.9427 165.375C17.7622 167.739 17.7728 170.114 17.9746 172.477L17.9626 172.394C17.4529 169.766 16.0535 167.395 14.0007 165.682C10.9517 163.173 6.64413 162.25 3.35486 160.233C3.00529 160.009 2.59882 159.889 2.1834 159.888C1.76799 159.887 1.36094 160.005 1.01028 160.228C0.659621 160.451 0.379968 160.77 0.204307 161.147C0.0286471 161.524 -0.0356936 161.943 0.0188734 162.356C0.0232849 162.385 0.0277703 162.414 0.0323263 162.444C0.522658 162.644 1.00007 162.874 1.4618 163.133C1.72603 163.283 1.98467 163.441 2.23774 163.609C2.55566 163.822 2.80201 164.126 2.9445 164.481C3.08698 164.836 3.11897 165.226 3.03627 165.6C2.95356 165.974 2.76003 166.314 2.48102 166.576C2.202 166.838 1.85053 167.009 1.47264 167.068L1.43392 167.074C1.40604 167.078 1.38215 167.082 1.35432 167.086C2.19212 169.089 3.368 170.933 4.83046 172.537C6.63709 174.479 8.82065 176.03 11.2472 177.096C13.6738 178.163 16.2923 178.721 18.9422 178.738H18.9462C19.6655 181.869 20.7077 184.916 22.056 187.831H33.1654C33.2052 187.707 33.241 187.58 33.2769 187.456C32.2486 187.521 31.2162 187.459 30.2029 187.273C31.0271 186.26 31.8513 185.239 32.6756 184.226C32.694 184.207 32.7113 184.187 32.7274 184.166C33.1455 183.647 33.5675 183.133 33.9856 182.615L33.9859 182.614C34.0081 181.025 33.8261 179.439 33.4441 177.897L33.4438 177.897Z" fill="#F2F2F2"/>
<path d="M206.447 172.845C206.659 173.04 206.926 173.166 207.212 173.205C207.498 173.243 207.789 173.193 208.045 173.061C208.302 172.93 208.511 172.722 208.646 172.467C208.78 172.212 208.833 171.922 208.797 171.637C208.861 171.506 208.907 171.412 208.97 171.282C209 171.266 209.029 171.251 209.059 171.236C209.723 170.899 210.471 170.764 211.211 170.851C211.951 170.937 212.649 171.239 213.217 171.72C213.785 172.201 214.198 172.839 214.405 173.553C214.611 174.268 214.601 175.027 214.377 175.736C213.482 178.567 212.822 181.602 211.226 184.05C210.521 185.132 209.632 186.084 208.601 186.862C214.411 184.12 219.562 180.162 223.705 175.258C224.744 174.026 225.712 172.738 226.607 171.398C227.339 170.299 228.021 169.17 228.654 168.011C232.078 161.719 233.96 154.706 234.143 147.548C233.246 145.253 233.076 142.738 233.654 140.343C233.86 139.481 234.189 138.652 234.633 137.883C234.799 138.065 234.976 138.24 235.153 138.409C235.208 138.461 235.267 138.516 235.323 138.568L235.344 138.587C235.542 138.769 235.788 138.89 236.053 138.935C236.318 138.98 236.59 138.948 236.837 138.843C237.084 138.737 237.296 138.562 237.446 138.34C237.595 138.117 237.678 137.856 237.682 137.587C237.685 137.42 237.688 137.253 237.691 137.086C237.697 136.83 237.698 136.575 237.704 136.319C237.702 136.293 237.702 136.266 237.703 136.24C237.709 135.947 237.712 135.657 237.718 135.364C238.312 135.181 238.939 135.138 239.552 135.237C241.661 135.598 243.129 137.807 243.074 139.941C243.023 142.077 241.707 144.029 240.009 145.325C238.516 146.388 236.853 147.19 235.091 147.696C235.085 147.858 235.085 148.02 235.079 148.182C234.965 151.157 234.559 154.114 233.867 157.01C235.539 154.52 237.781 152.461 240.406 151.005C242.919 149.703 245.891 149.326 248.716 148.749C252.109 148.055 254.719 151.794 252.793 154.668C252.774 154.695 252.755 154.723 252.737 154.751C252.437 154.695 252.135 154.649 251.832 154.614C251.45 154.572 251.064 154.646 250.724 154.826C250.385 155.007 250.108 155.286 249.93 155.626C249.752 155.966 249.681 156.353 249.726 156.734C249.772 157.115 249.932 157.474 250.185 157.763L250.211 157.793C249.522 158.464 248.783 159.081 248 159.641C245.795 161.185 243.294 162.259 240.654 162.793C238.014 163.328 235.292 163.312 232.659 162.747C232.488 162.708 232.32 162.672 232.151 162.629C230.728 166.403 228.82 169.975 226.474 173.257C225.085 175.188 223.541 177.004 221.858 178.687L221.921 178.63C224.012 176.944 226.622 176.029 229.31 176.041C233.279 176.087 237.192 178.163 241.028 178.743C241.442 178.796 241.833 178.967 242.153 179.235C242.473 179.502 242.71 179.856 242.836 180.254C242.962 180.652 242.971 181.077 242.862 181.48C242.754 181.883 242.532 182.247 242.224 182.528C242.201 182.548 242.179 182.567 242.156 182.587C241.65 182.423 241.133 182.292 240.61 182.192C240.31 182.136 240.008 182.09 239.705 182.055C239.323 182.013 238.937 182.087 238.597 182.268C238.258 182.448 237.981 182.727 237.803 183.067C237.625 183.408 237.554 183.794 237.6 184.175C237.645 184.557 237.805 184.915 238.058 185.204L238.084 185.234C238.103 185.255 238.119 185.274 238.138 185.295C236.197 186.29 234.1 186.945 231.937 187.231C229.291 187.553 226.607 187.332 224.05 186.581C221.493 185.831 219.116 184.567 217.065 182.866L217.062 182.864C214.485 184.801 211.712 186.466 208.79 187.831L200.238 180.649C200.288 180.528 200.342 180.407 200.395 180.289C201.144 181.003 201.979 181.623 202.88 182.135C202.9 180.825 202.926 179.509 202.946 178.199C202.944 178.172 202.944 178.146 202.945 178.119C202.958 177.451 202.966 176.783 202.979 176.115L202.979 176.115C203.99 174.881 205.155 173.782 206.446 172.845L206.447 172.845Z" fill="#F2F2F2"/>
<path d="M253.449 188.018C253.449 188.043 253.44 188.068 253.422 188.09C253.405 188.113 253.379 188.134 253.347 188.151C253.314 188.169 253.276 188.183 253.234 188.192C253.191 188.202 253.146 188.206 253.1 188.206H0.348809C0.256299 188.206 0.167582 188.187 0.102168 188.151C0.0367533 188.116 0 188.068 0 188.018C0 187.968 0.0367533 187.921 0.102168 187.885C0.167582 187.85 0.256299 187.83 0.348809 187.83H253.1C253.146 187.83 253.191 187.835 253.234 187.844C253.276 187.854 253.314 187.868 253.347 187.885C253.379 187.903 253.405 187.923 253.422 187.946C253.44 187.969 253.449 187.994 253.449 188.018Z" fill="#CCCCCC"/>
<path d="M133.097 45.5453L121.406 48.0595L119.018 36.5575L123.417 30.6493L127.377 29.895L131.776 34.3575L133.097 45.5453Z" fill="#413931"/>
<path d="M127.691 46.0468H120.651L119.692 41.3087L118.641 36.1164L120.211 33.8545L123.23 34.797L126.497 39.3237L127.317 43.9362L127.374 44.2646L127.691 46.0468Z" fill="#FFA66A"/>
<path d="M139.506 43.2825L131.398 44.2252L132.844 33.9176L136.112 30.9634L138.941 31.6548L140.826 35.9917L139.506 43.2825Z" fill="#413931"/>
<path d="M140.573 37.1845L139.819 41.3343L137.369 55.4744L127.941 58.4932L127.615 58.3161L122.535 55.5372L119.676 41.3029L119.69 41.3086L127.25 44.3502L127.316 43.9361L127.361 43.6362L127.941 39.952L130.517 37.1845L139.128 35.1111L140.573 37.1845Z" fill="#FFA66A"/>
<path d="M134.603 36.7459C135.714 36.7459 136.614 35.8455 136.614 34.7347C136.614 33.6239 135.714 32.7234 134.603 32.7234C133.492 32.7234 132.592 33.6239 132.592 34.7347C132.592 35.8455 133.492 36.7459 134.603 36.7459Z" fill="#FFA66A"/>
<path d="M129.66 35.7723L125.072 36.5894L125.094 36.7131L129.683 35.8961L129.66 35.7723Z" fill="#CCCCCC"/>
<path d="M127.617 58.3161L122.536 55.5372L119.677 41.3029L119.692 41.3087L118.641 36.1164L120.211 33.8545L123.23 34.797L126.497 39.3237L127.317 43.9362L127.363 43.6363L127.374 44.2646L127.406 46.0468L127.617 58.3161Z" fill="#C16A2F"/>
<path d="M122.597 55.5545L122.475 55.5219L124.981 46.124L122.111 42.3406L122.212 42.2646L125.118 46.0968L122.597 55.5545Z" fill="#413931"/>
<path d="M124.012 50.1891L123.898 50.2437L127.885 58.5194L127.998 58.4649L124.012 50.1891Z" fill="#413931"/>
<path opacity="0.2" d="M140.08 40.473L139.608 43.0807L139.584 43.0832L137.471 55.274L128.043 58.291L127.986 58.318L127.948 58.2394L122.637 55.3369L122.577 55.3206L122.609 55.1974L119.778 41.1009L119.792 41.1065L119.479 39.5591L119.713 39.2216L120.438 38.1782L123.455 39.121L126.723 43.6464L126.771 43.9154L127.114 45.8462L127.251 46.6218L127.542 48.2604L127.819 46.4999L127.918 45.8663L128.168 44.2749L130.745 41.5094L131.891 41.2335L132.689 41.0412L133.786 40.7772C133.446 40.5703 133.175 40.2671 133.007 39.9059C132.839 39.5447 132.782 39.1418 132.844 38.7482C132.905 38.3547 133.082 37.9883 133.352 37.6954C133.622 37.4025 133.972 37.1964 134.36 37.1031C134.747 37.0098 135.153 37.0335 135.527 37.1714C135.9 37.3092 136.225 37.5548 136.459 37.8772C136.693 38.1996 136.826 38.5841 136.841 38.9821C136.856 39.3801 136.752 39.7737 136.544 40.1128L139.356 39.4353L140.049 40.4302L140.08 40.473Z" fill="#413931"/>
<path d="M127.918 51H120.878L118.867 41.0694L120.439 38.8066L123.455 39.7494L126.724 44.2747L127.918 51Z" fill="#FFA66A"/>
<path d="M137.595 60.4279L128.167 63.4447L122.762 60.4907L119.902 46.2547L127.476 49.3029L128.167 44.9032L130.744 42.1377L139.355 40.0637L140.801 42.1377L140.047 46.2861L137.595 60.4279Z" fill="#FFA66A"/>
<path d="M134.83 41.6983C135.94 41.6983 136.841 40.7978 136.841 39.6871C136.841 38.5763 135.94 37.6758 134.83 37.6758C133.719 37.6758 132.818 38.5763 132.818 39.6871C132.818 40.7978 133.719 41.6983 134.83 41.6983Z" fill="#FFA66A"/>
<path d="M127.847 63.1714L122.767 60.3925L119.908 46.1582L119.922 46.1639L118.871 40.9717L120.442 38.7097L123.461 39.6522L126.728 44.179L127.548 48.7914L127.593 48.4915L127.605 49.1198L127.636 50.902L127.847 63.1714Z" fill="#C16A2F"/>
<path d="M122.823 60.5061L122.702 60.4739L125.208 51.0756L122.338 47.2923L122.438 47.2163L125.345 51.0488L122.823 60.5061Z" fill="#413931"/>
<path d="M124.238 55.1413L124.125 55.1958L128.111 63.4715L128.224 63.417L124.238 55.1413Z" fill="#413931"/>
<path d="M59.1713 174.997L67.2102 174.074L76.8304 109.104L96.73 174.338L105.428 174.602L95.5439 94.3446L96.9935 76.0265L72.3498 68.2512C54.8954 80.4357 55.2566 123.472 59.1713 174.997Z" fill="#2F2E41"/>
<path d="M60.5666 187.419C61.9168 188.035 63.0478 184.216 64.1867 185.335C67.3723 188.466 75.0145 187.764 75.0145 187.764C75.2711 187.682 75.5083 187.548 75.7117 187.371C75.9151 187.194 76.0804 186.978 76.1978 186.736C76.3152 186.493 76.382 186.229 76.3944 185.96C76.4067 185.691 76.3643 185.422 76.2697 185.169C76.1565 184.867 75.9715 184.597 75.7309 184.383C75.4902 184.168 75.201 184.015 74.8881 183.937L71.5002 183.09L66.1806 173.734L60.3832 173.001L60.2368 173.24C59.116 175.046 58.3934 177.071 58.1172 179.179C57.841 181.287 58.0175 183.429 58.6349 185.463C59.1171 187.008 59.7733 187.057 60.5666 187.419Z" fill="#2F2E41"/>
<path d="M98.7854 187.419C100.136 188.035 101.267 184.216 102.405 185.335C105.591 188.466 113.233 187.764 113.233 187.764C113.49 187.682 113.727 187.548 113.93 187.371C114.134 187.194 114.299 186.978 114.417 186.736C114.534 186.493 114.601 186.229 114.613 185.96C114.625 185.691 114.583 185.422 114.488 185.169C114.375 184.867 114.19 184.597 113.95 184.383C113.709 184.168 113.42 184.015 113.107 183.937L109.719 183.09L104.399 173.734L98.602 173.001L98.4556 173.24C97.3348 175.046 96.6122 177.071 96.3359 179.179C96.0597 181.287 96.2362 183.429 96.8537 185.463C97.3358 187.008 97.9921 187.057 98.7854 187.419Z" fill="#2F2E41"/>
<path d="M126.512 78.3859C129.706 79.3823 131.78 81.8377 131.146 83.8701C130.512 85.9025 127.409 86.7418 124.214 85.7447C122.932 85.3639 121.761 84.6818 120.797 83.7553L107.318 79.3629L109.514 73.0818L122.569 78.0787C123.889 77.8647 125.241 77.9701 126.512 78.3859Z" fill="#FFB6B6"/>
<path d="M97.6389 32.3003C94.4252 31.9197 91.4661 34.0917 90.8674 37.2721C88.7321 48.6158 84.1967 73.1459 84.7939 73.7432C85.5715 74.5208 114.601 83.074 114.601 83.074L117.97 75.8167L98.7901 66.4859L102.997 39.3545C103.531 35.9102 101.1 32.7103 97.6389 32.3003Z" fill="#E6E6E6"/>
<path d="M95.3625 33.9302L96.9434 24.0496L86.2723 19.7021L84.6914 34.7207L95.3625 33.9302Z" fill="#FFB6B6"/>
<path d="M92.6632 27.2268C98.6731 27.2268 103.545 22.3548 103.545 16.3448C103.545 10.3349 98.6731 5.46289 92.6632 5.46289C86.6533 5.46289 81.7812 10.3349 81.7812 16.3448C81.7812 22.3548 86.6533 27.2268 92.6632 27.2268Z" fill="#FFB6B6"/>
<path d="M91.4637 9.65723C88.6444 9.96157 86.6088 12.4037 84.8899 14.659C83.8991 15.9589 82.8614 17.3945 82.8862 19.0287C82.9114 20.6809 84.0161 22.0981 84.544 23.6639C85.407 26.2233 84.5659 29.2684 82.5117 31.0221C84.5415 31.4073 86.7358 29.8854 87.0862 27.8493C87.4941 25.479 85.6973 23.1913 85.9101 20.7957C86.0976 18.6851 87.7609 17.0607 89.1749 15.4826C90.5889 13.9045 91.9169 11.8104 91.2664 9.79379" fill="#2F2E41"/>
<path d="M96.5917 32.2733L84.2721 28.9038L71.5719 34.0876L66.1289 77.1129L97.2315 78.1496V71.2097C97.2315 71.2097 102.674 64.4126 101.638 54.5635L100.601 44.7143L96.5917 32.2733Z" fill="#E6E6E6"/>
<path d="M102.287 49.7684L77.9231 48.4724L71.3137 67.2638C71.3137 67.2638 63.1492 78.5386 61.8532 86.8327C60.5573 95.1268 61.3349 106.79 61.3349 106.79H100.34L97.2328 71.2098C97.2328 71.2098 104.487 55.4706 103.646 52.7491C102.805 50.0276 102.287 49.7684 102.287 49.7684Z" fill="#3F3D56"/>
<path d="M83.6275 29.0332H77.666V51.0649H83.6275V29.0332Z" fill="#3F3D56"/>
<path d="M102.028 33.958H96.0664V52.1018H102.028V33.958Z" fill="#3F3D56"/>
<path opacity="0.2" d="M96.4478 68.2003C89.1328 64.2239 77.2836 55.5038 73.4608 50.7866C68.4218 44.5727 73.9183 39.8495 73.9183 39.8495C80.15 35.9175 87.6007 49.408 87.6007 49.408L93.6346 54.3024C93.7349 54.7924 93.8294 55.2765 93.9239 55.7606C94.7061 59.7576 95.7954 64.2062 96.4478 68.2003Z" fill="#413931"/>
<path d="M118.283 63.6175C118.283 63.6175 129.158 68.0323 130.948 63.0694C132.738 58.1066 122.362 58.1917 122.362 58.1917L118.289 58.7689L118.283 63.6175Z" fill="#FFB6B6"/>
<path d="M72.5248 37.8299C72.5248 37.8299 67.0311 42.5557 72.0663 48.7674C77.1016 54.979 100.242 68.2511 100.242 68.2511L115.316 64.1762L119.581 64.9568L120.386 56.9482L114.101 57.5616L98.1491 54.165L87.9769 45.9112C87.9769 45.9112 78.7546 33.9002 72.5248 37.8299Z" fill="#E6E6E6"/>
<path d="M128.393 88.0976H120.77L119.641 73.3899H129.522L128.393 88.0976Z" fill="#FFA66A"/>
<path d="M129.752 79.365H119.641V81.6631H129.752V79.365Z" fill="#E6E6E6"/>
<path d="M130.107 72.5857H128.415L128.227 72.0112H120.706L120.518 72.5857H118.826L118.262 74.3093H130.671L130.107 72.5857Z" fill="#413931"/>
<path d="M81.3456 11.6945C81.3456 11.6945 79.1054 6.77052 84.9298 4.53233C84.9298 4.53233 89.8582 -3.52515 99.715 1.84651C99.715 1.84651 106.436 4.53233 106.436 11.6945C106.436 18.8567 108.676 20.1996 108.676 20.1996C108.676 20.1996 105.34 16.7802 104.444 14.0944C103.548 11.4086 96.5788 10.7993 93.8906 13.4851C91.2024 16.1709 84.4818 15.7233 84.4818 15.7233L84.9299 25.5713C84.9299 25.5713 82.6897 19.752 81.7936 19.752C80.8975 19.752 80.0015 11.6945 81.3456 11.6945Z" fill="#2F2E41"/>
<path d="M202.392 105.674C202.424 105.001 202.603 104.343 202.916 103.747C203.23 103.151 203.671 102.63 204.207 102.223C204.744 101.815 205.363 101.53 206.021 101.388C206.68 101.245 207.362 101.249 208.019 101.398L214.113 92.8093L220.236 95.24L211.459 107.249C211.135 108.336 210.423 109.266 209.458 109.863C208.494 110.46 207.344 110.683 206.226 110.489C205.108 110.295 204.101 109.697 203.394 108.81C202.687 107.923 202.331 106.807 202.392 105.674Z" fill="#FFB8B8"/>
<path d="M214.271 105.038L232.713 81.1134L225.803 59.3966C225.297 53.9367 221.88 52.4121 221.735 52.3498L221.513 52.2546L215.5 68.2895L219.915 80.0626L209.079 98.2876L214.271 105.038Z" fill="#3F3D56"/>
<path d="M150.226 31.2869C150.895 31.3707 151.537 31.6001 152.107 31.9589C152.678 32.3177 153.162 32.7972 153.527 33.3635C153.892 33.9299 154.128 34.5694 154.22 35.237C154.311 35.9046 154.254 36.584 154.054 37.2275L162.146 43.968L159.25 49.8847L147.956 40.2052C146.897 39.7977 146.025 39.016 145.504 38.0083C144.983 37.0005 144.85 35.8367 145.13 34.7374C145.41 33.6381 146.083 32.6797 147.022 32.0437C147.962 31.4078 149.102 31.1385 150.226 31.2869Z" fill="#FFB8B8"/>
<path d="M149.943 43.1788L172.37 63.4151L194.556 58.2049C200.038 58.1222 201.822 54.8337 201.896 54.6936L202.008 54.4798L186.486 47.2452L174.407 50.7366L157.074 38.5237L149.943 43.1788Z" fill="#3F3D56"/>
<path d="M188.79 187.038H182.764L179.898 163.796L188.791 163.797L188.79 187.038Z" fill="#FFB8B8"/>
<path d="M171.143 192.633L190.08 192.634L190.081 185.317L177.629 185.316C175.909 185.316 174.259 185.999 173.043 187.216C171.826 188.432 171.143 190.082 171.143 191.802L171.143 192.633Z" fill="#2F2E41"/>
<path d="M212.874 187.038H206.848L203.982 163.796L212.875 163.797L212.874 187.038Z" fill="#FFB8B8"/>
<path d="M195.225 192.633L214.162 192.634L214.163 185.317L201.711 185.316C200.86 185.316 200.016 185.484 199.229 185.81C198.442 186.136 197.727 186.614 197.125 187.216C196.522 187.818 196.045 188.533 195.719 189.32C195.393 190.107 195.225 190.951 195.225 191.802L195.225 192.633Z" fill="#2F2E41"/>
<path d="M215.016 102.203L214.524 136.608L214.033 181.826L203.22 180.843L197.813 118.422L190.932 180.843H179.769L178.645 117.931L182.577 104.169L215.016 102.203Z" fill="#2F2E41"/>
<path d="M193.852 106.823C205.618 106.824 216.447 101.499 216.594 101.426L216.715 101.365L217.702 77.6708C217.989 76.8335 223.626 60.3117 224.581 55.0603C225.549 49.7398 211.528 45.0704 209.825 44.5244L209.439 40.2443L193.727 38.5513L191.736 44.0278L186.099 46.1414C185.46 46.3812 184.931 46.8471 184.612 47.4508C184.294 48.0545 184.208 48.754 184.371 49.4169L187.504 62.157L179.852 104.308L181.499 104.379C185.397 106.061 189.608 106.894 193.852 106.823Z" fill="#3F3D56"/>
<path d="M200.965 35.841C194.717 35.841 189.652 30.7761 189.652 24.5283C189.652 18.2804 194.717 13.2156 200.965 13.2156C207.212 13.2156 212.277 18.2804 212.277 24.5283C212.277 30.7761 207.212 35.841 200.965 35.841Z" fill="#FFB8B8"/>
<path d="M210.13 35.4793C207.974 37.7759 203.97 36.543 203.689 33.4056C203.667 33.1621 203.669 32.9169 203.694 32.6737C203.839 31.2839 204.642 30.0222 204.449 28.5549C204.406 28.1897 204.27 27.8417 204.054 27.5438C202.336 25.2432 198.303 28.5727 196.682 26.4901C195.688 25.2131 196.856 23.2025 196.093 21.7752C195.087 19.8914 192.104 20.8207 190.234 19.7891C188.153 18.6412 188.277 15.4484 189.647 13.5063C191.318 11.1379 194.247 9.87409 197.139 9.69195C200.032 9.50982 202.905 10.2918 205.605 11.3442C208.673 12.5399 211.716 14.1925 213.604 16.8905C215.901 20.1715 216.122 24.5826 214.973 28.4191C214.275 30.753 211.89 33.604 210.13 35.4793Z" fill="#2F2E41"/>
</svg>
